<?xml version="1.0" standalone="no"?>
<!DOCTYPE svg PUBLIC "-//W3C//DTD SVG 20010904//EN"
 "http://www.w3.org/TR/2001/REC-SVG-20010904/DTD/svg10.dtd">
<svg version="1.0" xmlns="http://www.w3.org/2000/svg"
 width="64.000000pt" height="64.000000pt" viewBox="0 0 64.000000 64.000000"
 preserveAspectRatio="xMidYMid meet">

<g transform="translate(0.000000,64.000000) scale(0.100000,-0.100000)"
fill="#000000" stroke="none">
<path d="M537 633 c-12 -11 -8 -36 10 -55 15 -17 15 -18 -1 -18 -9 0 -19 -7
-23 -15 -3 -9 -13 -15 -22 -14 -38 3 -53 -3 -91 -37 l-41 -37 -25 23 c-13 13
-36 48 -51 78 -14 30 -33 56 -41 60 -15 5 -51 -33 -52 -55 0 -22 16 -14 28 12
15 32 28 32 37 -2 8 -33 40 -81 73 -109 31 -26 13 -43 -20 -20 -14 10 -44 16
-76 16 -53 0 -54 1 -49 25 3 16 0 24 -7 22 -6 -2 -12 -13 -14 -25 -4 -27 -17
-27 -87 -1 -72 27 -89 21 -80 -29 10 -55 63 -148 105 -185 l37 -32 -74 -76
c-68 -69 -74 -79 -63 -98 12 -23 66 -61 87 -61 6 0 23 20 37 45 l26 44 50 -6
c34 -4 50 -2 50 6 0 6 -15 11 -32 11 -18 0 -43 3 -55 6 -17 5 -26 -3 -48 -40
-15 -25 -31 -46 -36 -46 -5 0 -23 13 -41 30 l-33 29 75 70 75 69 60 -5 c73 -5
118 18 142 75 13 31 14 45 4 81 l-12 44 48 49 c56 57 76 65 108 44 39 -26 33
-64 -19 -115 -40 -39 -44 -48 -48 -102 -6 -85 -58 -152 -143 -182 -5 -3 -7 -8
-3 -12 21 -23 120 56 149 120 10 22 19 59 19 81 0 36 6 47 50 88 27 25 52 46
55 46 3 0 3 -16 -1 -36 -4 -24 -3 -35 3 -31 14 9 28 74 24 111 -2 18 5 35 19
48 29 27 22 54 -12 50 -21 -2 -25 1 -21 16 7 28 -32 63 -50 45z m27 -29 c3 -8
2 -12 -4 -9 -6 3 -10 10 -10 16 0 14 7 11 14 -7z m48 -66 c-7 -7 -12 -8 -12
-2 0 6 3 14 7 17 3 4 9 5 12 2 2 -3 -1 -11 -7 -17z m-47 -8 c3 -5 2 -10 -4
-10 -5 0 -13 5 -16 10 -3 6 -2 10 4 10 5 0 13 -4 16 -10z m12 -47 c-3 -3 -11
-2 -17 2 -9 6 -9 10 1 16 14 8 27 -7 16 -18z m-487 -23 c34 -12 82 -19 127
-20 66 0 76 -3 105 -29 28 -25 33 -36 33 -76 0 -40 -5 -51 -33 -76 -35 -32
-86 -38 -139 -18 -62 23 -140 125 -158 207 -8 37 -7 37 65 12z m490 -4 c0 -3
-4 -8 -10 -11 -5 -3 -10 -1 -10 4 0 6 5 11 10 11 6 0 10 -2 10 -4z"/>
</g>
</svg>
